<svg version="1.1" id="Layer_1" xmlns="http://www.w3.org/2000/svg" xmlns:xlink="http://www.w3.org/1999/xlink" x="0px" y="0px"
	 width="100%" viewBox="0 0 512 512" enable-background="new 0 0 512 512" xml:space="preserve">
<path fill="#607EBC" opacity="1.000000" stroke="none" 
	d="
M477.000000,513.000000 
	C318.038666,513.000000 159.577332,513.000000 1.058002,513.000000 
	C1.058002,342.413666 1.058002,171.827286 1.058002,1.120456 
	C171.544647,1.120456 342.089386,1.120456 512.817078,1.120456 
	C512.817078,171.666489 512.817078,342.333252 512.817078,513.000000 
	C501.160553,513.000000 489.330292,513.000000 477.000000,513.000000 
M320.738281,444.755035 
	C325.450043,448.706665 329.806183,453.209442 334.933258,456.517303 
	C361.203247,473.465881 390.034393,476.650604 419.835693,469.825134 
	C466.272583,459.189545 480.614563,421.212067 469.910889,382.658447 
	C464.876617,364.525421 451.943085,352.410492 436.032928,343.793152 
	C421.890656,336.133392 406.907013,330.042603 392.482117,322.881805 
	C386.125488,319.726257 379.479156,316.474426 374.280426,311.802032 
	C361.959137,300.728241 366.925995,280.552643 382.806213,276.451691 
	C395.169922,273.258911 406.297546,276.031067 414.869110,286.109314 
	C417.334778,289.008453 419.387054,292.259216 421.915802,295.744202 
	C434.289307,287.795959 446.677612,279.838196 459.052338,271.889130 
	C448.284119,252.832458 433.351379,239.944580 412.056396,235.463379 
	C399.046356,232.725616 385.896027,232.298218 372.860016,235.087341 
	C347.623444,240.486877 328.983276,254.302292 322.581207,280.022430 
	C316.115021,306.000305 321.544373,329.615112 342.239319,348.255981 
	C353.028320,357.974060 366.013519,363.986420 379.071533,369.910309 
	C390.410095,375.054138 401.817535,380.122253 412.776154,386.003510 
	C421.734741,390.811401 426.282654,398.908813 424.807617,409.298004 
	C423.348358,419.575806 416.253204,425.050964 406.931885,428.052338 
	C385.322113,435.010406 362.736572,426.728424 348.816711,406.822723 
	C347.504913,404.946808 346.183350,403.077698 344.786896,401.092529 
	C331.686707,408.706177 318.924408,416.123444 305.105469,424.154846 
	C310.326477,431.086578 315.285095,437.669922 320.738281,444.755035 
M206.504837,429.940033 
	C189.448074,430.324341 182.223495,417.778107 174.894043,405.218933 
	C161.620209,413.265869 148.752792,421.066376 135.814377,428.909943 
	C145.837845,449.229462 160.699173,463.133667 182.184662,469.265839 
	C199.564804,474.226257 217.065308,474.196442 234.428482,469.258972 
	C256.001831,463.124298 270.330261,449.230072 276.008606,427.504730 
	C278.380829,418.428589 279.668457,408.812836 279.729858,399.431213 
	C280.075470,346.607086 279.897675,293.779572 279.898376,240.953186 
	C279.898407,239.371429 279.898376,237.789658 279.898376,236.258575 
	C263.510986,236.258575 247.894760,236.258575 231.799957,236.258575 
	C231.799957,238.418167 231.799957,240.373657 231.799957,242.329132 
	C231.799896,293.655701 231.813248,344.982269 231.772705,396.308807 
	C231.769684,400.131012 231.552902,403.971588 231.140350,407.771576 
	C229.516022,422.733337 222.635727,429.098602 206.504837,429.940033 
z"/>
<path fill="#020100" opacity="0.000000" stroke="none" 
	d="
M320.490997,444.504150 
	C315.285095,437.669922 310.326477,431.086578 305.105469,424.154846 
	C318.924408,416.123444 331.686707,408.706177 344.786896,401.092529 
	C346.183350,403.077698 347.504913,404.946808 348.816711,406.822723 
	C362.736572,426.728424 385.322113,435.010406 406.931885,428.052338 
	C416.253204,425.050964 423.348358,419.575806 424.807617,409.298004 
	C426.282654,398.908813 421.734741,390.811401 412.776154,386.003510 
	C401.817535,380.122253 390.410095,375.054138 379.071533,369.910309 
	C366.013519,363.986420 353.028320,357.974060 342.239319,348.255981 
	C321.544373,329.615112 316.115021,306.000305 322.581207,280.022430 
	C328.983276,254.302292 347.623444,240.486877 372.860016,235.087341 
	C385.896027,232.298218 399.046356,232.725616 412.056396,235.463379 
	C433.351379,239.944580 448.284119,252.832458 459.052338,271.889130 
	C446.677612,279.838196 434.289307,287.795959 421.915802,295.744202 
	C419.387054,292.259216 417.334778,289.008453 414.869110,286.109314 
	C406.297546,276.031067 395.169922,273.258911 382.806213,276.451691 
	C366.925995,280.552643 361.959137,300.728241 374.280426,311.802032 
	C379.479156,316.474426 386.125488,319.726257 392.482117,322.881805 
	C406.907013,330.042603 421.890656,336.133392 436.032928,343.793152 
	C451.943085,352.410492 464.876617,364.525421 469.910889,382.658447 
	C480.614563,421.212067 466.272583,459.189545 419.835693,469.825134 
	C390.034393,476.650604 361.203247,473.465881 334.933258,456.517303 
	C329.806183,453.209442 325.450043,448.706665 320.490997,444.504150 
z"/>
<path fill="#607EBC" opacity="0.000000" stroke="none" 
	d="
M206.953308,429.931091 
	C222.635727,429.098602 229.516022,422.733337 231.140350,407.771576 
	C231.552902,403.971588 231.769684,400.131012 231.772705,396.308807 
	C231.813248,344.982269 231.799896,293.655701 231.799957,242.329132 
	C231.799957,240.373657 231.799957,238.418167 231.799957,236.258575 
	C247.894760,236.258575 263.510986,236.258575 279.898376,236.258575 
	C279.898376,237.789658 279.898407,239.371429 279.898376,240.953186 
	C279.897675,293.779572 280.075470,346.607086 279.729858,399.431213 
	C279.668457,408.812836 278.380829,418.428589 276.008606,427.504730 
	C270.330261,449.230072 256.001831,463.124298 234.428482,469.258972 
	C217.065308,474.196442 199.564804,474.226257 182.184662,469.265839 
	C160.699173,463.133667 145.837845,449.229462 135.814377,428.909943 
	C148.752792,421.066376 161.620209,413.265869 174.894043,405.218933 
	C182.223495,417.778107 189.448074,430.324341 206.953308,429.931091 
z"/>
</svg>