<svg version="1.1" id="Layer_1" xmlns="http://www.w3.org/2000/svg" xmlns:xlink="http://www.w3.org/1999/xlink" x="0px" y="0px"
	 width="100%" viewBox="0 0 256 256" enable-background="new 0 0 256 256" xml:space="preserve">
<path fill="#607EBC" opacity="1.000000" stroke="none" 
	d="
M238.001740,257.000000 
	C158.668015,257.000000 79.834747,257.000000 1.001119,257.000000 
	C1.000746,171.667252 1.000746,86.334488 1.000373,1.001302 
	C86.332672,1.000868 171.665344,1.000868 256.998535,1.000434 
	C256.999023,86.332588 256.999023,171.665176 256.999512,256.998901 
	C250.834061,257.000000 244.668137,257.000000 238.001740,257.000000 
M206.624359,212.373047 
	C192.027588,218.603348 181.774689,211.640198 173.023636,200.801666 
	C166.756668,204.541855 160.924347,208.022644 155.127914,211.482025 
	C159.598175,221.941360 167.416382,230.138794 177.958679,232.541748 
	C186.911331,234.582367 196.413193,235.748947 205.536057,235.167709 
	C221.475662,234.152145 233.412628,224.395370 235.622421,211.188354 
	C238.880554,191.715790 233.432465,182.218109 219.095001,173.543442 
	C216.392685,171.908432 213.593323,170.432083 210.821579,168.913879 
	C203.964951,165.158188 197.030304,161.537231 190.282440,157.596008 
	C188.538635,156.577499 186.924652,154.797119 186.024567,152.982941 
	C183.980988,148.863876 185.334808,145.166183 188.610565,142.211411 
	C192.366241,138.823746 198.288345,138.152954 202.559662,140.847580 
	C206.048889,143.048828 209.261322,145.688828 212.840469,148.313217 
	C218.152710,144.212433 223.368484,140.186111 228.713898,136.059708 
	C220.929596,125.678764 211.755173,119.161514 198.878571,118.338112 
	C181.976059,117.257271 167.145386,126.213913 162.739029,140.763382 
	C158.112076,156.041275 165.161987,172.135269 180.265106,180.327377 
	C185.373764,183.098358 190.750595,185.370377 195.934570,188.008575 
	C199.628860,189.888657 203.464722,191.646576 206.781464,194.080368 
	C213.910538,199.311646 213.954941,206.100418 206.624359,212.373047 
M142.380447,119.995689 
	C114.146187,119.995689 85.911926,119.995689 57.418880,119.995689 
	C57.418880,126.984924 57.418880,133.409790 57.418880,140.642548 
	C68.938477,140.642548 80.287506,140.642548 92.170700,140.642548 
	C92.170700,172.631226 92.170700,203.817047 92.170700,234.888611 
	C100.005074,234.888611 107.264488,234.888611 115.043198,234.888611 
	C115.043198,203.387451 115.043198,172.180481 115.043198,140.433853 
	C126.302193,140.433853 137.045715,140.433853 147.907501,140.433853 
	C147.907501,133.452057 147.907501,127.018181 147.907501,120.293114 
	C146.254425,120.185455 144.803406,120.090950 142.380447,119.995689 
z"/>
<path fill="#FDFDFE" opacity="0.000000" stroke="none" 
	d="
M206.953247,212.172211 
	C213.954941,206.100418 213.910538,199.311646 206.781464,194.080368 
	C203.464722,191.646576 199.628860,189.888657 195.934570,188.008575 
	C190.750595,185.370377 185.373764,183.098358 180.265106,180.327377 
	C165.161987,172.135269 158.112076,156.041275 162.739029,140.763382 
	C167.145386,126.213913 181.976059,117.257271 198.878571,118.338112 
	C211.755173,119.161514 220.929596,125.678764 228.713898,136.059708 
	C223.368484,140.186111 218.152710,144.212433 212.840469,148.313217 
	C209.261322,145.688828 206.048889,143.048828 202.559662,140.847580 
	C198.288345,138.152954 192.366241,138.823746 188.610565,142.211411 
	C185.334808,145.166183 183.980988,148.863876 186.024567,152.982941 
	C186.924652,154.797119 188.538635,156.577499 190.282440,157.596008 
	C197.030304,161.537231 203.964951,165.158188 210.821579,168.913879 
	C213.593323,170.432083 216.392685,171.908432 219.095001,173.543442 
	C233.432465,182.218109 238.880554,191.715790 235.622421,211.188354 
	C233.412628,224.395370 221.475662,234.152145 205.536057,235.167709 
	C196.413193,235.748947 186.911331,234.582367 177.958679,232.541748 
	C167.416382,230.138794 159.598175,221.941360 155.127914,211.482025 
	C160.924347,208.022644 166.756668,204.541855 173.023636,200.801666 
	C181.774689,211.640198 192.027588,218.603348 206.953247,212.172211 
z"/>
<path fill="#FDFDFF" opacity="0.000000" stroke="none" 
	d="
M142.866425,119.996063 
	C144.803406,120.090950 146.254425,120.185455 147.907501,120.293114 
	C147.907501,127.018181 147.907501,133.452057 147.907501,140.433853 
	C137.045715,140.433853 126.302193,140.433853 115.043198,140.433853 
	C115.043198,172.180481 115.043198,203.387451 115.043198,234.888611 
	C107.264488,234.888611 100.005074,234.888611 92.170700,234.888611 
	C92.170700,203.817047 92.170700,172.631226 92.170700,140.642548 
	C80.287506,140.642548 68.938477,140.642548 57.418880,140.642548 
	C57.418880,133.409790 57.418880,126.984924 57.418880,119.995689 
	C85.911926,119.995689 114.146187,119.995689 142.866425,119.996063 
z"/>
</svg>